<?xml version="1.0" encoding="utf-8"?>
<!-- Generator: Adobe Illustrator 27.6.1, SVG Export Plug-In . SVG Version: 6.00 Build 0)  -->
<svg version="1.1" id="Слой_1" xmlns:xodm="http://www.corel.com/coreldraw/odm/2003"
	 xmlns="http://www.w3.org/2000/svg" xmlns:xlink="http://www.w3.org/1999/xlink" x="0px" y="0px" viewBox="0 0 751.4 281"
	 style="enable-background:new 0 0 751.4 281;" xml:space="preserve">
<style type="text/css">
	.st0{fill:#FEC300;}
</style>
<g id="Слой_x0020_1">
	<path class="st0" d="M64.4,0H687c18.9,0,30.3,0,37.8,3.2c10.9,4,19.5,12.6,23.5,23.5c3.2,7.6,3.2,18.9,3.2,37.8v152.1
		c0,18.9,0,30.3-3.2,37.8c-4,10.9-12.6,19.5-23.5,23.5c-7.6,3.2-18.9,3.2-37.8,3.2H64.4c-18.9,0-30.3,0-37.8-3.2
		c-10.9-4-19.5-12.6-23.5-23.5C0,246.8,0,235.5,0,216.6V64.4c0-18.9,0-30.3,3.2-37.8c4-10.9,12.6-19.5,23.5-23.5
		C34.2,0,45.5,0,64.4,0L64.4,0z"/>
	<g id="_1618064768928">
		<path d="M237.1,123l-23,74.5h-22.7L178.2,163c-0.2-0.5-1-3.3-2.2-8.4c-0.5,3.3-1.2,6.3-2.3,8.8l-13.2,34.1h-21.3L115.3,123h26.6
			l9.1,34.1c0.3,1.2,0.8,4.3,1.7,9.4c0.7-4.1,1.3-7.3,2.2-9.4l11.3-34.1h22.2l11.6,33.9c0.5,1.5,1.3,4.6,2.3,9.8
			c0.7-4.8,1.3-8.1,1.8-10.1l8.1-33.6L237.1,123L237.1,123z"/>
		<path d="M302.6,173.4l6.8,17.5c-7.4,5.6-17.2,8.4-29,8.4c-12.2,0-22-3.6-29.3-10.8c-7.4-7.1-11.1-16.7-11.1-28.5
			c0-11.1,3.8-20.5,11.3-28c7.4-7.4,17-11.3,29.1-11.3c9.9,0,18.4,3.3,25.5,9.8c7.1,6.6,10.6,15.1,10.6,25.3c0,5-0.5,9.1-1.5,12.4
			h-49.3c2.2,6.8,7.9,10.3,17.4,10.3C290.5,178.7,297,176.9,302.6,173.4L302.6,173.4z M279.6,141.7c-7.4,0-12.2,3.5-14.7,10.3h26.8
			c0-2.8-1-5.1-3.1-7.3C286.4,142.7,283.4,141.7,279.6,141.7L279.6,141.7z M328.9,176.1V81.6h24.8v85c0,6.5,1.3,9.6,4.1,9.6
			c1.5,0,3.6-0.8,6.5-2.6l5,18.9c-5.6,4.6-12.9,6.9-21.8,6.9C335,199.4,328.9,191.6,328.9,176.1L328.9,176.1z M380,197.4V81.6h24.8
			v73.6l20.4-32.3h31.1l-24.2,33.6l27.6,40.9H428l-23.2-35.6v35.6H380L380,197.4z M471,197.4V123h24.8v74.5H471z M468.9,97.3
			c0-4.3,1.5-7.8,4.5-10.3c2.8-2.5,6.5-3.8,10.6-3.8c3.8,0,7.1,1.3,9.9,3.8c2.8,2.6,4.1,6.1,4.1,10.3c0,4.6-1.3,8.3-4.1,10.9
			c-2.8,2.8-6.1,4.1-9.9,4.1c-4.3,0-7.9-1.3-10.8-4C470.4,105.8,468.9,102.1,468.9,97.3z M516.2,197.4V123H541v5.8
			c5-4.8,11.1-7.1,18.4-7.1c20.2,0,30.3,10.4,30.3,31.4v44.3h-24.8v-40c0-4.1-1.2-7.3-3.3-9.4c-2.2-2.2-5.1-3.1-8.9-3.1
			c-4.3,0-8.1,1.7-11.6,5.1v47.5L516.2,197.4L516.2,197.4z M603.7,181.5c0-4,1.5-7.6,4.6-10.8c3.1-3.1,7.1-4.8,12.2-4.8
			c4.5,0,8.1,1.7,11.1,4.8c3,3.1,4.5,6.8,4.5,10.8c0,4.5-1.5,8.4-4.3,11.7c-3,3.5-6.8,5.1-11.3,5.1c-5.1,0-9.1-1.7-12.2-5
			C605.2,190.2,603.7,186.2,603.7,181.5L603.7,181.5z"/>
	</g>
</g>
</svg>
